<svg viewBox="0 0 200 32" xmlns="http://www.w3.org/2000/svg" fill-rule="evenodd" clip-rule="evenodd" stroke-linejoin="round" stroke-miterlimit="2"><path d="M30 0H0v32L30 0z" fill="#333"/><path d="M30 32H0V0l30 32z" fill="#1a1a1a"/><path d="M30 11l-5 5 5 5V11z" fill="#333"/><path d="M47.544 16.428l8.372 10.052h-4.788l-7.308-9.044v9.044h-3.948V6.712h3.948v8.876l7.336-8.876h4.76l-8.372 9.716zM75.432 6.712L68.74 19.564v6.916h-3.976v-6.916l-6.72-12.852h4.536l4.2 8.652 4.2-8.652h4.452zM82.908 23.456h6.636v3.024H78.96V6.712h3.948v16.744zM97.244 9.848v5.124h7v3.024h-7v5.32h7.84v3.164H93.296V6.712h11.788v3.136h-7.84zM138.208 6.936V26.48h-3.92V12.844l-5.012 13.636h-3.416l-5.012-13.58v13.58H116.9V6.936h4.788l5.936 14.7 5.824-14.7h4.76zM143.192 6.712h3.948V26.48h-3.948zM156.072 23.456h6.636v3.024h-10.584V6.712h3.948v16.744zM170.408 23.456h6.636v3.024H166.46V6.712h3.948v16.744zM194.376 21.076a5.36 5.36 0 01-.756 2.786c-.504.849-1.251 1.531-2.24 2.044-.989.513-2.193.77-3.612.77-1.4 0-2.651-.238-3.752-.714s-1.983-1.162-2.646-2.058c-.663-.896-1.041-1.941-1.134-3.136h4.2c.093.803.415 1.47.966 2.002.551.532 1.283.798 2.198.798.821 0 1.451-.219 1.89-.658.439-.439.658-1.003.658-1.694 0-.616-.177-1.125-.532-1.526a3.897 3.897 0 00-1.344-.966c-.541-.243-1.288-.523-2.24-.84-1.232-.411-2.24-.817-3.024-1.218-.784-.401-1.451-.985-2.002-1.75-.551-.765-.826-1.764-.826-2.996 0-1.699.611-3.038 1.834-4.018s2.842-1.47 4.858-1.47c2.091 0 3.757.504 4.998 1.512s1.946 2.352 2.114 4.032h-4.256c-.112-.709-.411-1.293-.896-1.75-.485-.457-1.148-.686-1.988-.686-.728 0-1.316.191-1.764.574-.448.383-.672.938-.672 1.666 0 .579.173 1.059.518 1.442a3.95 3.95 0 001.316.938c.532.243 1.255.513 2.17.812 1.269.448 2.301.868 3.094 1.26.793.392 1.47.98 2.03 1.764.56.784.84 1.811.84 3.08z" fill="#1a1a1a" fill-rule="nonzero"/></svg>